<?xml version="1.0" encoding="UTF-8"?>
<svg version="1.1" xmlns="http://www.w3.org/2000/svg" width="100" height="100">
<path d="M0 0 C9.40707465 5.68464327 15.68680199 13.83643636 18.546875 24.5390625 C19.81816587 35.18018906 19.08411233 45.14253855 13.546875 54.5390625 C12.556875 55.5290625 12.556875 55.5290625 11.546875 56.5390625 C13.031875 57.0340625 13.031875 57.0340625 14.546875 57.5390625 C14.546875 58.8590625 14.546875 60.1790625 14.546875 61.5390625 C13.226875 61.5390625 11.906875 61.5390625 10.546875 61.5390625 C10.216875 60.8790625 9.886875 60.2190625 9.546875 59.5390625 C9.01320313 59.99796875 8.47953125 60.456875 7.9296875 60.9296875 C-2.56169886 69.56965274 -11.91574525 71.83539098 -25.31445312 70.80957031 C-34.8744138 69.60038807 -42.8797787 64.22976046 -48.828125 56.828125 C-51.453125 53.09114583 -51.453125 53.09114583 -51.453125 50.5390625 C-52.2575 50.5596875 -53.061875 50.5803125 -53.890625 50.6015625 C-56.453125 50.5390625 -56.453125 50.5390625 -57.453125 49.5390625 C-57.578125 46.5390625 -57.578125 46.5390625 -57.453125 43.5390625 C-56.958125 43.0440625 -56.958125 43.0440625 -56.453125 42.5390625 C-56.37687052 40.5797461 -56.30610979 38.62003955 -56.26513672 36.65966797 C-55.96707395 24.96481162 -53.82146128 15.03480794 -45.4765625 6.2890625 C-32.87910695 -4.60603419 -15.10756629 -7.47031593 0 0 Z " fill="#E5ECB6" transform="translate(68.453125,16.4609375)"/>
<path d="M0 0 C3.35098927 0.39819799 5.41960021 0.97428771 7.82421875 3.37890625 C7.64616748 6.76188038 7.03584631 8.14162686 4.76171875 10.69140625 C3.80265625 11.52671875 3.80265625 11.52671875 2.82421875 12.37890625 C5.10410049 17.66300717 9.06521479 21.25156079 13.82421875 24.37890625 C17.20220971 25.26439903 20.34171172 25.49523216 23.82421875 25.37890625 C23.82421875 26.03890625 23.82421875 26.69890625 23.82421875 27.37890625 C20.23423192 28.25411749 17.41551363 28.30510619 13.82421875 27.37890625 C8.9264408 24.08182548 4.87063606 19.64096335 0.82421875 15.37890625 C-2.39870713 18.5566773 -5.49722548 21.7947836 -8.48828125 25.19140625 C-9.18566406 25.98160156 -9.88304688 26.77179687 -10.6015625 27.5859375 C-11.12105469 28.17761719 -11.64054687 28.76929687 -12.17578125 29.37890625 C-9.20578125 29.37890625 -6.23578125 29.37890625 -3.17578125 29.37890625 C-2.84578125 27.72890625 -2.51578125 26.07890625 -2.17578125 24.37890625 C-1.48828125 26.19140625 -1.48828125 26.19140625 -1.17578125 28.37890625 C-2.68203637 30.34448396 -3.63984492 31.25701807 -6.0769043 31.8112793 C-7.12164917 31.85055542 -7.12164917 31.85055542 -8.1875 31.890625 C-9.32348633 31.94379883 -9.32348633 31.94379883 -10.48242188 31.99804688 C-11.26810547 32.02060547 -12.05378906 32.04316406 -12.86328125 32.06640625 C-14.05920898 32.11764648 -14.05920898 32.11764648 -15.27929688 32.16992188 C-17.24430029 32.25228729 -19.21001821 32.31727692 -21.17578125 32.37890625 C-21.17578125 33.36890625 -21.17578125 34.35890625 -21.17578125 35.37890625 C-6.64301031 41.58108094 8.2678898 41.29847511 23.82421875 41.37890625 C23.82421875 42.03890625 23.82421875 42.69890625 23.82421875 43.37890625 C23.06278564 43.4039624 22.30135254 43.42901855 21.5168457 43.45483398 C18.05664499 43.57109673 14.59669621 43.69368603 11.13671875 43.81640625 C9.93853516 43.85572266 8.74035156 43.89503906 7.50585938 43.93554688 C6.34892578 43.97744141 5.19199219 44.01933594 4 44.0625 C2.4053894 44.11748657 2.4053894 44.11748657 0.77856445 44.17358398 C-1.95779817 44.36375678 -4.49260937 44.84092839 -7.17578125 45.37890625 C-9.23828125 44.890625 -9.23828125 44.890625 -11.17578125 44.06640625 C-11.8615625 43.78539062 -12.54734375 43.504375 -13.25390625 43.21484375 C-13.888125 42.93898437 -14.52234375 42.663125 -15.17578125 42.37890625 C-19.47226789 40.5236052 -22.32296115 39.70515349 -26.92578125 41.37890625 C-28.03953125 41.87390625 -28.03953125 41.87390625 -29.17578125 42.37890625 C-28.23763692 37.55416398 -28.23763692 37.55416398 -27.42578125 35.25390625 C-27.30203125 34.32578125 -27.30203125 34.32578125 -27.17578125 33.37890625 C-27.67078125 32.90453125 -28.16578125 32.43015625 -28.67578125 31.94140625 C-29.17078125 31.42578125 -29.66578125 30.91015625 -30.17578125 30.37890625 C-29.96089356 25.56046299 -27.69622394 23.47219541 -24.30078125 20.25390625 C-23.41648437 19.40570313 -22.5321875 18.5575 -21.62109375 17.68359375 C-20.41066406 16.54277344 -20.41066406 16.54277344 -19.17578125 15.37890625 C-18.66144531 14.78464844 -18.14710937 14.19039062 -17.6171875 13.578125 C-15.66590332 11.95469887 -14.48649787 12.20586569 -11.98828125 12.31640625 C-8.48070335 12.08640114 -7.39028907 11.58562665 -4.80859375 9.09765625 C-2.82373784 6.58303453 -0.95138696 4.0447339 0.82421875 1.37890625 C0.06109375 2.14203125 -0.70203125 2.90515625 -1.48828125 3.69140625 C-3.38411458 5.58723958 -5.27994792 7.48307292 -7.17578125 9.37890625 C-7.83578125 9.04890625 -8.49578125 8.71890625 -9.17578125 8.37890625 C-3.76821377 0.65622394 -3.76821377 0.65622394 0 0 Z " fill="#614437" transform="translate(54.17578125,23.62109375)"/>
<path d="M0 0 C1.02083333 0.875 2.04166667 1.75 3.0625 2.625 C3.70574219 3.16769531 4.34898438 3.71039063 5.01171875 4.26953125 C6.2793848 5.3728241 7.51598393 6.51362245 8.70703125 7.69921875 C13.30511411 12.14654479 16.62377425 12.80380844 23 13 C23 17.62 23 22.24 23 27 C-10.34237822 28.05365662 -10.34237822 28.05365662 -21 22 C-21.95703125 19.890625 -21.95703125 19.890625 -22 18 C-20.45049732 16.45049732 -18.90009406 16.78344807 -16.74609375 16.68359375 C-15.89208984 16.64169922 -15.03808594 16.59980469 -14.15820312 16.55664062 C-12.81145508 16.49766602 -12.81145508 16.49766602 -11.4375 16.4375 C-10.08495117 16.37272461 -10.08495117 16.37272461 -8.70507812 16.30664062 C-6.47021515 16.20021858 -4.23523692 16.09820012 -2 16 C-2 15.01 -2 14.02 -2 13 C-2.33 13.495 -2.66 13.99 -3 14.5 C-6.17572747 16.88179561 -9.10246066 16.19168226 -13 16 C-8.93866463 10.40636594 -4.6208599 5.14036486 0 0 Z " fill="#F8B77D" transform="translate(54,38)"/>
<path d="M0 0 C-0.89364515 1.20995254 -1.79005779 2.41786111 -2.6875 3.625 C-3.50347656 4.72714844 -3.50347656 4.72714844 -4.3359375 5.8515625 C-5.75164143 7.67934926 -7.22793922 9.32277484 -8.8125 11 C-10.959983 13.94511954 -11.31145383 14.77396704 -11.63671875 18.1875 C-11.75660156 19.445625 -11.87648438 20.70375 -12 22 C2.53277094 28.20217469 17.44367105 27.91956886 33 28 C33 28.66 33 29.32 33 30 C32.23856689 30.02505615 31.47713379 30.0501123 30.69262695 30.07592773 C27.23242624 30.19219048 23.77247746 30.31477978 20.3125 30.4375 C18.51522461 30.49647461 18.51522461 30.49647461 16.68164062 30.55664062 C15.52470703 30.59853516 14.36777344 30.64042969 13.17578125 30.68359375 C12.11270752 30.72025146 11.04963379 30.75690918 9.9543457 30.79467773 C7.21798308 30.98485053 4.68317188 31.46202214 2 32 C-0.0625 31.51171875 -0.0625 31.51171875 -2 30.6875 C-2.68578125 30.40648438 -3.3715625 30.12546875 -4.078125 29.8359375 C-4.71234375 29.56007813 -5.3465625 29.28421875 -6 29 C-10.29648664 27.14469895 -13.1471799 26.32624724 -17.75 28 C-18.4925 28.33 -19.235 28.66 -20 29 C-19.52491926 26.55672764 -19.04141878 24.14910761 -18.375 21.75 C-18.25125 21.1725 -18.1275 20.595 -18 20 C-18.33 19.67 -18.66 19.34 -19 19 C-18.83351145 12.58622664 -16.72091103 9.78039147 -12.3125 5.5625 C-11.79494141 5.02173828 -11.27738281 4.48097656 -10.74414062 3.92382812 C-7.19431806 0.42705397 -4.96266063 -0.6621841 0 0 Z " fill="#6C5344" transform="translate(45,37)"/>
<path d="M0 0 C0.99 0.33 1.98 0.66 3 1 C2.85127706 5.90785705 0.32705814 7.94375667 -3.03125 11.109375 C-5.01241748 13.01192472 -6.82228162 14.9909552 -8.625 17.0625 C-9.49318359 18.05443359 -9.49318359 18.05443359 -10.37890625 19.06640625 C-11.40609216 20.2916039 -12.39864844 21.5474152 -13.33984375 22.83984375 C-14.5625 24.5 -14.5625 24.5 -17 27 C-20.3125 27.375 -20.3125 27.375 -23 27 C-20.61746972 22.49966502 -17.72793097 19.41066025 -14 16 C-13.34 16 -12.68 16 -12 16 C-11.88664307 15.40219727 -11.77328613 14.80439453 -11.65649414 14.18847656 C-10.59769823 10.65889437 -7.93327823 8.35483221 -5.4375 5.75 C-4.91736328 5.19570313 -4.39722656 4.64140625 -3.86132812 4.0703125 C-2.58069015 2.70743172 -1.2911951 1.35288317 0 0 Z " fill="#EEDB59" transform="translate(57,26)"/>
<path d="M0 0 C-3.33195019 4.67779674 -6.87543541 9.14926555 -10.625 13.5 C-11.35976563 14.3559375 -12.09453125 15.211875 -12.8515625 16.09375 C-15 18 -15 18 -19 18 C-18.67298324 12.11369824 -16.33973115 9.54103509 -12.3125 5.625 C-11.79494141 5.07972656 -11.27738281 4.53445312 -10.74414062 3.97265625 C-7.19510196 0.44571621 -4.98825918 -0.67307845 0 0 Z " fill="#F2B27A" transform="translate(45,37)"/>
<path d="M0 0 C0.99 0.33 1.98 0.66 3 1 C4 4 4 4 3.1875 6.625 C2 9 2 9 0 10 C-2.6723621 10.13415472 -5.32250488 10.04318541 -8 10 C-7.04367001 8.70684939 -6.08486149 7.41553147 -5.125 6.125 C-4.59132812 5.40570313 -4.05765625 4.68640625 -3.5078125 3.9453125 C-2 2 -2 2 0 0 Z " fill="#C78359" transform="translate(49,44)"/>
<path d="M0 0 C3 0.125 3 0.125 4 1.125 C4.125 4.125 4.125 4.125 4 7.125 C3 8.125 3 8.125 0 8.25 C-3 8.125 -3 8.125 -4 7.125 C-4.125 4.125 -4.125 4.125 -4 1.125 C-3 0.125 -3 0.125 0 0 Z " fill="#F0BB19" transform="translate(83,10.875)"/>
<path d="M0 0 C2.5625 0.1875 2.5625 0.1875 4.5625 2.1875 C4.00694444 6.74305556 4.00694444 6.74305556 2.5625 8.1875 C0.0625 8.3125 0.0625 8.3125 -2.4375 8.1875 C-3.4375 7.1875 -3.4375 7.1875 -3.5625 4.1875 C-3.39891479 0.26145498 -3.39891479 0.26145498 0 0 Z " fill="#FACD5B" transform="translate(14.4375,58.8125)"/>
<path d="M0 0 C3.42909758 1.46851488 5.52409841 3.41841001 8.125 6.0625 C12.8419418 10.40271433 16.70026712 11.21042949 23 11 C23 11.66 23 12.32 23 13 C19.41089386 13.87499653 16.59117869 13.92162993 13 13 C8.08546841 9.73690464 3.96455171 5.33117953 0 1 C0 0.67 0 0.34 0 0 Z " fill="#705344" transform="translate(55,38)"/>
<path d="M0 0 C0.66 0.33 1.32 0.66 2 1 C0.5689218 4.39135719 -1.17065183 6.23764957 -4 8.5625 C-6.55772463 10.67356316 -8.133135 12.19970251 -10 15 C-8.68 15.66 -7.36 16.32 -6 17 C-7.65 17.33 -9.3 17.66 -11 18 C-11.6953125 16.2421875 -11.6953125 16.2421875 -12 14 C-10.7421875 12.0703125 -10.7421875 12.0703125 -8.875 10.125 C-8.23175781 9.43664063 -7.58851562 8.74828125 -6.92578125 8.0390625 C-5.97251953 7.02972656 -5.97251953 7.02972656 -5 6 C-4.01058199 4.84201448 -3.02987535 3.67646224 -2.0625 2.5 C-1.381875 1.675 -0.70125 0.85 0 0 Z " fill="#715338" transform="translate(45,37)"/>
<path d="M0 0 C1.32 0 2.64 0 4 0 C4.66 1.98 5.32 3.96 6 6 C2.04 7.98 2.04 7.98 -2 10 C-1.33333333 6.66666667 -0.66666667 3.33333333 0 0 Z " fill="#907A45" transform="translate(27,56)"/>
<path d="M0 0 C3.35098927 0.39819799 5.41960021 0.97428771 7.82421875 3.37890625 C7.57421875 5.94140625 7.57421875 5.94140625 6.82421875 8.37890625 C5.83421875 8.87390625 5.83421875 8.87390625 4.82421875 9.37890625 C4.82421875 7.39890625 4.82421875 5.41890625 4.82421875 3.37890625 C2.13388311 2.26078616 2.13388311 2.26078616 -1.17578125 2.37890625 C-3.56360139 4.43329205 -5.36874919 6.80933229 -7.17578125 9.37890625 C-7.83578125 9.04890625 -8.49578125 8.71890625 -9.17578125 8.37890625 C-3.76821377 0.65622394 -3.76821377 0.65622394 0 0 Z " fill="#695343" transform="translate(54.17578125,23.62109375)"/>
<path d="M0 0 C5.445 1.485 5.445 1.485 11 3 C11 3.99 11 4.98 11 6 C6.91621717 5.25749403 2.98060777 4.17076699 -1 3 C-0.67 2.01 -0.34 1.02 0 0 Z " fill="#87614A" transform="translate(40,63)"/>
<path d="M0 0 C6.6 0.33 13.2 0.66 20 1 C20 1.33 20 1.66 20 2 C18.19402344 2.09087891 18.19402344 2.09087891 16.3515625 2.18359375 C14.77602923 2.26799732 13.20050904 2.35264541 11.625 2.4375 C10.8309375 2.47681641 10.036875 2.51613281 9.21875 2.55664062 C4.97398779 2.68893404 4.97398779 2.68893404 1 4 C0.01 3.34 -0.98 2.68 -2 2 C-1.34 2 -0.68 2 0 2 C0 1.34 0 0.68 0 0 Z " fill="#B4815D" transform="translate(48,61)"/>
<path d="M0 0 C0.66 0.99 1.32 1.98 2 3 C1.67619874 4.33568021 1.34342449 5.66923011 1 7 C1.66 7.66 2.32 8.32 3 9 C2.01 9 1.02 9 0 9 C-1.04115841 7.69855198 -2.03886134 6.36161311 -3 5 C-3.99 4.34 -4.98 3.68 -6 3 C-5.195625 2.690625 -4.39125 2.38125 -3.5625 2.0625 C-1.10919595 1.23664655 -1.10919595 1.23664655 0 0 Z " fill="#53362D" transform="translate(32,52)"/>
<path d="M0 0 C1.32 0 2.64 0 4 0 C3.67 1.65 3.34 3.3 3 5 C1.68 4.67 0.36 4.34 -1 4 C-0.67 2.68 -0.34 1.36 0 0 Z " fill="#E5A874" transform="translate(33,55)"/>
<path d="M0 0 C1.98 0.495 1.98 0.495 4 1 C3.67 2.32 3.34 3.64 3 5 C1.68 4.67 0.36 4.34 -1 4 C-0.67 2.68 -0.34 1.36 0 0 Z " fill="#FCFCF7" transform="translate(17,49)"/>
<path d="M0 0 C1.65 0 3.3 0 5 0 C5 1.32 5 2.64 5 4 C3.68 4 2.36 4 1 4 C0.67 2.68 0.34 1.36 0 0 Z " fill="#FACF5A" transform="translate(78,74)"/>
<path d="M0 0 C2.51083114 1.25541557 2.87125446 2.50063488 4 5 C2.35 4.67 0.7 4.34 -1 4 C-1 1 -1 1 0 0 Z " fill="#815944" transform="translate(35,60)"/>
<path d="M0 0 C1.32 0 2.64 0 4 0 C4 1.32 4 2.64 4 4 C2.68 4 1.36 4 0 4 C0 2.68 0 1.36 0 0 Z " fill="#87AD44" transform="translate(23,85)"/>
<path d="M0 0 C1.32 0 2.64 0 4 0 C4 1.32 4 2.64 4 4 C2.68 4 1.36 4 0 4 C0 2.68 0 1.36 0 0 Z " fill="#87AD44" transform="translate(85,22)"/>
<path d="M0 0 C0.66 0 1.32 0 2 0 C2 0.66 2 1.32 2 2 C1.34 2 0.68 2 0 2 C0 1.34 0 0.68 0 0 Z " fill="#F0BB18" transform="translate(76,12)"/>
</svg>
