<?xml version="1.0" encoding="UTF-8"?>
<svg version="1.1" xmlns="http://www.w3.org/2000/svg" width="100" height="100">
<path d="M0 0 C0.8690094 -0.05134094 1.7380188 -0.10268188 2.63336182 -0.15557861 C3.56871765 -0.18512634 4.50407349 -0.21467407 5.46777344 -0.24511719 C6.44518494 -0.27740417 7.42259644 -0.30969116 8.42962646 -0.34295654 C10.50390417 -0.39826897 12.57854399 -0.44118132 14.65332031 -0.47265625 C16.74882721 -0.51843502 18.84389505 -0.59979091 20.93652344 -0.71875 C31.25626376 -1.30480124 40.40510661 -1.33077492 48.86157227 5.25953674 C56.19922756 12.0922586 58.90344543 18.7016173 59.28027344 28.66503906 C59.27604549 32.96233357 59.05957573 37.23055492 58.82714844 41.52050781 C58.78107968 43.73456583 58.74196949 45.94878002 58.70996094 48.16308594 C58.65635157 50.26807314 58.59668341 52.37291681 58.53027344 54.47753906 C58.50072571 55.46180374 58.47117798 56.44606842 58.44073486 57.4601593 C58.38939392 58.36928574 58.33805298 59.27841217 58.28515625 60.21508789 C58.24577942 61.01288162 58.20640259 61.81067535 58.16583252 62.63264465 C57.57714844 64.70800781 57.57714844 64.70800781 55.89007568 66.46455383 C53.02709874 68.00372031 51.10755025 68.08851798 47.86230469 68.09619141 C46.71431396 68.10564789 45.56632324 68.11510437 44.38354492 68.12484741 C42.53031616 68.11573837 42.53031616 68.11573837 40.63964844 68.10644531 C38.73131226 68.11075058 38.73131226 68.11075058 36.78442383 68.11514282 C34.09425234 68.11718458 31.4048984 68.11315563 28.71484375 68.09912109 C25.27138947 68.08202896 21.82863669 68.09187346 18.38520813 68.10983849 C15.09499659 68.12330187 11.80486914 68.11386816 8.51464844 68.10644531 C7.2791626 68.11251801 6.04367676 68.1185907 4.77075195 68.12484741 C3.04876587 68.11066269 3.04876587 68.11066269 1.29199219 68.09619141 C-0.22213257 68.09261124 -0.22213257 68.09261124 -1.7668457 68.08895874 C-4.92174747 67.63645117 -6.27285716 67.06608071 -8.42285156 64.70800781 C-8.93078613 62.09632874 -8.93078613 62.09632874 -8.94042969 58.9230957 C-8.95303833 57.73498795 -8.96564697 56.54688019 -8.9786377 55.32276917 C-8.97054077 54.03837448 -8.96244385 52.7539798 -8.95410156 51.43066406 C-8.95792847 50.1126329 -8.96175537 48.79460175 -8.96569824 47.43663025 C-8.97159502 44.64644632 -8.96302704 41.85677473 -8.94433594 39.06665039 C-8.92156711 35.49407854 -8.93465321 31.92271003 -8.95862579 28.35018253 C-8.97657869 24.93941394 -8.96399765 21.52896683 -8.95410156 18.11816406 C-8.96219849 16.83579361 -8.97029541 15.55342316 -8.9786377 14.23219299 C-8.96602905 13.04093307 -8.95342041 11.84967316 -8.94042969 10.62231445 C-8.93724731 9.57435196 -8.93406494 8.52638947 -8.93078613 7.44667053 C-7.99066384 2.37775411 -4.99544362 0.25880727 0 0 Z " fill="#9E9EC6" transform="translate(25.4228515625,15.2919921875)"/>
<path d="M0 0 C1.37152222 -0.00945648 1.37152222 -0.00945648 2.77075195 -0.019104 C3.76034912 -0.01505554 4.74994629 -0.01100708 5.76953125 -0.00683594 C6.78297607 -0.00874939 7.7964209 -0.01066284 8.84057617 -0.01263428 C10.98584237 -0.01399685 13.13111678 -0.01029541 15.27636719 -0.00195312 C18.56854697 0.00874524 21.86018103 -0.00184613 25.15234375 -0.01464844 C27.23307413 -0.01332686 29.31380416 -0.01076449 31.39453125 -0.00683594 C32.38412842 -0.0108844 33.37372559 -0.01493286 34.39331055 -0.019104 C35.30765869 -0.01279968 36.22200684 -0.00649536 37.1640625 0 C38.37412964 0.00238678 38.37412964 0.00238678 39.60864258 0.00482178 C41.58203125 0.25878906 41.58203125 0.25878906 43.58203125 2.25878906 C43.75744597 5.27101813 43.81344808 8.19265913 43.77734375 11.20410156 C43.77532959 11.98841553 43.77331543 12.77272949 43.77124023 13.58081055 C43.76076332 16.51519607 43.73284077 19.44949834 43.70703125 22.38378906 C43.66578125 28.94253906 43.62453125 35.50128906 43.58203125 42.25878906 C27.08203125 42.25878906 10.58203125 42.25878906 -6.41796875 42.25878906 C-6.45921875 35.70003906 -6.50046875 29.14128906 -6.54296875 22.38378906 C-6.56117676 20.31371582 -6.57938477 18.24364258 -6.59814453 16.11083984 C-6.60398419 14.47526306 -6.60908099 12.83968338 -6.61328125 11.20410156 C-6.62351318 10.35066162 -6.63374512 9.49722168 -6.64428711 8.61791992 C-6.64491856 6.49686773 -6.5412776 4.37625399 -6.41796875 2.25878906 C-3.97668206 -0.18249762 -3.34716061 0.00660206 0 0 Z " fill="#EAEADE" transform="translate(31.41796875,38.7412109375)"/>
<path d="M0 0 C0.8690094 -0.05134094 1.7380188 -0.10268188 2.63336182 -0.15557861 C3.56871765 -0.18512634 4.50407349 -0.21467407 5.46777344 -0.24511719 C6.44518494 -0.27740417 7.42259644 -0.30969116 8.42962646 -0.34295654 C10.50390417 -0.39826897 12.57854399 -0.44118132 14.65332031 -0.47265625 C16.74882721 -0.51843502 18.84389505 -0.59979091 20.93652344 -0.71875 C31.25626376 -1.30480124 40.40510661 -1.33077492 48.86157227 5.25953674 C56.19922756 12.0922586 58.90344543 18.7016173 59.28027344 28.66503906 C59.27604549 32.96233357 59.05957573 37.23055492 58.82714844 41.52050781 C58.78107968 43.73456583 58.74196949 45.94878002 58.70996094 48.16308594 C58.65635157 50.26807314 58.59668341 52.37291681 58.53027344 54.47753906 C58.50072571 55.46180374 58.47117798 56.44606842 58.44073486 57.4601593 C58.38939392 58.36928574 58.33805298 59.27841217 58.28515625 60.21508789 C58.24577942 61.01288162 58.20640259 61.81067535 58.16583252 62.63264465 C57.57714844 64.70800781 57.57714844 64.70800781 55.89007568 66.46455383 C53.02709874 68.00372031 51.10755025 68.08851798 47.86230469 68.09619141 C46.71431396 68.10564789 45.56632324 68.11510437 44.38354492 68.12484741 C42.53031616 68.11573837 42.53031616 68.11573837 40.63964844 68.10644531 C38.73131226 68.11075058 38.73131226 68.11075058 36.78442383 68.11514282 C34.09425234 68.11718458 31.4048984 68.11315563 28.71484375 68.09912109 C25.27138947 68.08202896 21.82863669 68.09187346 18.38520813 68.10983849 C15.09499659 68.12330187 11.80486914 68.11386816 8.51464844 68.10644531 C7.2791626 68.11251801 6.04367676 68.1185907 4.77075195 68.12484741 C3.04876587 68.11066269 3.04876587 68.11066269 1.29199219 68.09619141 C-0.22213257 68.09261124 -0.22213257 68.09261124 -1.7668457 68.08895874 C-4.92174747 67.63645117 -6.27285716 67.06608071 -8.42285156 64.70800781 C-8.93078613 62.09632874 -8.93078613 62.09632874 -8.94042969 58.9230957 C-8.95303833 57.73498795 -8.96564697 56.54688019 -8.9786377 55.32276917 C-8.97054077 54.03837448 -8.96244385 52.7539798 -8.95410156 51.43066406 C-8.95792847 50.1126329 -8.96175537 48.79460175 -8.96569824 47.43663025 C-8.97159502 44.64644632 -8.96302704 41.85677473 -8.94433594 39.06665039 C-8.92156711 35.49407854 -8.93465321 31.92271003 -8.95862579 28.35018253 C-8.97657869 24.93941394 -8.96399765 21.52896683 -8.95410156 18.11816406 C-8.96219849 16.83579361 -8.97029541 15.55342316 -8.9786377 14.23219299 C-8.96602905 13.04093307 -8.95342041 11.84967316 -8.94042969 10.62231445 C-8.93724731 9.57435196 -8.93406494 8.52638947 -8.93078613 7.44667053 C-7.99066384 2.37775411 -4.99544362 0.25880727 0 0 Z M-6.42285156 5.70800781 C-6.72964156 8.20155259 -6.72964156 8.20155259 -6.68164062 11.13574219 C-6.68794495 12.2703186 -6.69424927 13.40489502 -6.70074463 14.57385254 C-6.69669617 15.80406128 -6.69264771 17.03427002 -6.68847656 18.30175781 C-6.69039001 19.55935913 -6.69230347 20.81696045 -6.6942749 22.1126709 C-6.69563805 24.77593656 -6.69293162 27.43883711 -6.68359375 30.10205078 C-6.67219908 33.51872175 -6.67875904 36.93507854 -6.69073868 40.35173798 C-6.6996961 43.60592261 -6.69342784 46.86006909 -6.68847656 50.11425781 C-6.69252502 51.34446655 -6.69657349 52.57467529 -6.70074463 53.84216309 C-6.69444031 54.9767395 -6.68813599 56.11131592 -6.68164062 57.28027344 C-6.68004944 58.28239868 -6.67845825 59.28452393 -6.67681885 60.3170166 C-6.65642595 62.89340922 -6.65642595 62.89340922 -4.42285156 64.70800781 C-1.41915565 65.72747477 1.38589119 65.83935299 4.54174805 65.85327148 C6.01864357 65.86284126 6.01864357 65.86284126 7.52537537 65.87260437 C8.58273392 65.87371719 9.64009247 65.87483002 10.72949219 65.87597656 C12.36791832 65.88096916 12.36791832 65.88096916 14.03944397 65.88606262 C16.34847594 65.89112306 18.65751522 65.89347122 20.96655273 65.89331055 C24.49768111 65.8954973 28.02849719 65.91366336 31.55957031 65.93261719 C33.80370987 65.93555123 36.04785091 65.93753595 38.29199219 65.93847656 C39.34732651 65.94566208 40.40266083 65.9528476 41.48997498 65.96025085 C42.97159874 65.95563591 42.97159874 65.95563591 44.4831543 65.95092773 C45.78076942 65.95306526 45.78076942 65.95306526 47.104599 65.95524597 C50.17974603 65.64775214 53.32716578 64.95799047 55.57714844 62.70800781 C56.11695321 56.69743162 56.3203522 50.68916822 56.4765625 44.65771484 C56.54283831 42.63179851 56.63786669 40.60658841 56.76367188 38.58349609 C57.66112105 25.49553991 57.66112105 25.49553991 52.34277344 13.93164062 C46.0480122 6.78910138 46.0480122 6.78910138 37.59277344 3.32861328 C36.92761719 3.45381348 36.26246094 3.57901367 35.57714844 3.70800781 C35.24714844 4.36800781 34.91714844 5.02800781 34.57714844 5.70800781 C33.91714844 5.70800781 33.25714844 5.70800781 32.57714844 5.70800781 C32.08214844 4.71800781 32.08214844 4.71800781 31.57714844 3.70800781 C26.48683088 3.65864624 21.39665201 3.62230677 16.30615234 3.59814453 C14.57370579 3.58807406 12.84127628 3.57441692 11.10888672 3.55712891 C8.62170205 3.53292619 6.13474169 3.52153543 3.64746094 3.51269531 C2.48176071 3.49721146 2.48176071 3.49721146 1.29251099 3.48141479 C-3.02982542 3.31284794 -3.02982542 3.31284794 -6.42285156 5.70800781 Z " fill="#242632" transform="translate(25.4228515625,15.2919921875)"/>
<path d="M0 0 C0.66 0.33 1.32 0.66 2 1 C1.51202438 1.54271545 1.02404877 2.08543091 0.52128601 2.64459229 C-1.36129645 5.55939544 -1.36347438 7.2365274 -1.34057617 10.68652344 C-1.34034958 11.82740417 -1.34012299 12.96828491 -1.33988953 14.14373779 C-1.32440567 15.36989807 -1.30892181 16.59605835 -1.29296875 17.859375 C-1.28872391 19.11888977 -1.28447906 20.37840454 -1.28010559 21.67608643 C-1.26616121 25.01688538 -1.23922925 28.35706584 -1.20599365 31.69769287 C-1.17524839 35.10960558 -1.16159079 38.5215823 -1.14648438 41.93359375 C-1.11339814 48.62256649 -1.06318524 55.31124754 -1 62 C0.32 62.66 1.64 63.32 3 64 C3 51.13 3 38.26 3 25 C3.33 25 3.66 25 4 25 C4 38.53 4 52.06 4 66 C20.17 66 36.34 66 53 66 C53 66.33 53 66.66 53 67 C45.52529406 67.07601104 38.05068764 67.1285835 30.57568359 67.16479492 C28.03235143 67.17988936 25.48904533 67.20036688 22.94580078 67.22631836 C19.2919268 67.26267177 15.63839671 67.27971997 11.984375 67.29296875 C10.27637726 67.31619453 10.27637726 67.31619453 8.53387451 67.33988953 C7.47307678 67.34011612 6.41227905 67.34034271 5.31933594 67.34057617 C3.92035065 67.35056892 3.92035065 67.35056892 2.49310303 67.36076355 C-0.57455929 66.91685861 -1.89393206 66.27999191 -4 64 C-4.50793457 61.38832092 -4.50793457 61.38832092 -4.51757812 58.21508789 C-4.53018677 57.02698013 -4.54279541 55.83887238 -4.55578613 54.61476135 C-4.54768921 53.33036667 -4.53959229 52.04597198 -4.53125 50.72265625 C-4.5350769 49.40462509 -4.53890381 48.08659393 -4.54284668 46.72862244 C-4.54874345 43.93843851 -4.54017547 41.14876692 -4.52148438 38.35864258 C-4.49871554 34.78607073 -4.51180165 31.21470222 -4.53577423 27.64217472 C-4.55372713 24.23140613 -4.54114608 20.82095902 -4.53125 17.41015625 C-4.53934692 16.1277858 -4.54744385 14.84541534 -4.55578613 13.52418518 C-4.54317749 12.33292526 -4.53056885 11.14166534 -4.51757812 9.91430664 C-4.51439575 8.86634415 -4.51121338 7.81838165 -4.50793457 6.73866272 C-3.88011611 3.3536145 -2.60834057 2.16121786 0 0 Z " fill="#1F212C" transform="translate(21,16)"/>
<path d="M0 0 C5.28 0 10.56 0 16 0 C16 3.63 16 7.26 16 11 C10.72 11 5.44 11 0 11 C0 7.37 0 3.74 0 0 Z " fill="#FDF5A9" transform="translate(41,19)"/>
<path d="M0 0 C0.99 0 1.98 0 3 0 C3.33 3.96 3.66 7.92 4 12 C1.54724859 13.2263757 -0.0505781 13.11415314 -2.7890625 13.09765625 C-3.73007812 13.09443359 -4.67109375 13.09121094 -5.640625 13.08789062 C-6.62546875 13.07951172 -7.6103125 13.07113281 -8.625 13.0625 C-10.11386719 13.05573242 -10.11386719 13.05573242 -11.6328125 13.04882812 C-14.0886016 13.03702145 -16.54427104 13.020554 -19 13 C-19.33 12.34 -19.66 11.68 -20 11 C-12.08 10.505 -12.08 10.505 -4 10 C-3.67 7.36 -3.34 4.72 -3 2 C-2.34 2 -1.68 2 -1 2 C-0.67 1.34 -0.34 0.68 0 0 Z " fill="#828184" transform="translate(61,19)"/>
<path d="M0 0 C7.59 0 15.18 0 23 0 C22.01 0.33 21.02 0.66 20 1 C20 4.3 20 7.6 20 11 C19.67 11 19.34 11 19 11 C19 8.36 19 5.72 19 3 C18.34 3 17.68 3 17 3 C17 5.64 17 8.28 17 11 C16.67 11 16.34 11 16 11 C16 7.7 16 4.4 16 1 C10.72 1 5.44 1 0 1 C0 0.67 0 0.34 0 0 Z " fill="#56564C" transform="translate(41,18)"/>
<path d="M0 0 C0.99 0 1.98 0 3 0 C3 3.63 3 7.26 3 11 C2.01 11 1.02 11 0 11 C0 7.37 0 3.74 0 0 Z " fill="#FBF4A8" transform="translate(61,19)"/>
</svg>
